<?xml version="1.0" encoding="UTF-8"?>
<svg version="1.1" xmlns="http://www.w3.org/2000/svg" width="802" height="197">
<path d="M0 0 C131.01 0 262.02 0 397 0 C397 8.91 397 17.82 397 27 C310.54 27 224.08 27 135 27 C135.33 57.69 135.66 88.38 136 120 C136.66 120.33 137.32 120.66 138 121 C138.99 119.515 138.99 119.515 140 118 C144.1944205 117.72939223 147.97542684 117.65847561 152 119 C151.52126863 124.02667941 150.27675909 127.13510466 147 131 C139.98466055 135.53764256 133.48395268 136.22270382 125.3125 136.3125 C124.45205078 136.34150391 123.59160156 136.37050781 122.70507812 136.40039062 C115.0349434 136.47553136 109.17704358 134.48638193 103.125 129.75 C98.28683252 123.48884209 97.56051063 117.28059101 97.65942383 109.64648438 C97.65906222 108.73359901 97.65870062 107.82071365 97.65832806 106.8801651 C97.6605514 103.95113001 97.6833239 101.02268144 97.70703125 98.09375 C97.71144701 96.2750679 97.71450452 94.45638199 97.71618652 92.63769531 C97.73185835 85.92507173 97.7737422 79.21252999 97.8125 72.5 C97.874375 57.485 97.93625 42.47 98 27 C65.66 27 33.32 27 0 27 C0 18.09 0 9.18 0 0 Z " fill="#42355F" transform="translate(205,27)"/>
<path d="M0 0 C11.240625 -0.0825 22.48125 -0.165 34.0625 -0.25 C37.58043213 -0.28641602 41.09836426 -0.32283203 44.72290039 -0.36035156 C49.09851074 -0.37841797 49.09851074 -0.37841797 51.16233826 -0.3817749 C52.57006424 -0.38782179 53.97777272 -0.40168523 55.38536072 -0.42230225 C69.48624562 -0.61808085 84.06924224 0.75196545 94.890625 10.74609375 C103.19850119 19.42049389 105.10435402 29.23408449 105 41 C104.32875082 50.85297908 101.68499033 59.86201739 94.375 66.8125 C78.64157911 79.21825858 59.23765341 78 40 78 C40 95.16 40 112.32 40 130 C26.8 130 13.6 130 0 130 C0 87.1 0 44.2 0 0 Z M40 14 C40 30.17 40 46.34 40 63 C50.98442776 63.67849509 50.98442776 63.67849509 59 59 C65.91558364 50.18849917 65.67863447 40.76658969 65 30 C64.09004883 23.83053107 60.71885313 20.29524808 56.1328125 16.34765625 C51.00435272 13.10714595 46.1430956 14 40 14 Z " fill="#42355F" transform="translate(41,32)"/>
<path d="M0 0 C0.01213028 1.4115461 0.01213028 1.4115461 0.02450562 2.85160828 C0.10202188 11.72400525 0.18977504 20.59624991 0.28752708 29.46844769 C0.33745291 34.02963411 0.3837833 38.59079779 0.421875 43.15209961 C0.45877469 47.55477895 0.50514741 51.95726631 0.55806351 56.35978127 C0.57658256 58.03863975 0.59169971 59.71753934 0.60334396 61.39645958 C0.62024911 63.74977615 0.64929404 66.10265542 0.68115234 68.45581055 C0.68331253 69.1484903 0.68547272 69.84117004 0.68769836 70.55484009 C0.75495018 74.44862 1.18555243 77.52995196 3 81 C4.78671071 82.17612195 4.78671071 82.17612195 7 82 C10.6184136 80.6430949 12.36610144 78.79747621 14.1875 75.5 C18.25776011 66.21848506 18.31897455 56.21451644 18.4140625 46.23828125 C18.43342865 44.96647507 18.4527948 43.69466888 18.4727478 42.38432312 C18.52201768 39.04225993 18.56344206 35.70029589 18.60089111 32.35809326 C18.64127034 28.93199269 18.69220577 25.50604968 18.7421875 22.08007812 C18.83773135 15.386821 18.92291488 8.69349381 19 2 C22.91598818 1.65837319 26.83287182 1.32827575 30.75 1 C31.84183594 0.90460937 32.93367188 0.80921875 34.05859375 0.7109375 C35.69248047 0.57558594 35.69248047 0.57558594 37.359375 0.4375 C38.34389648 0.35371094 39.32841797 0.26992188 40.34277344 0.18359375 C45.55564349 -0.07809372 50.78056569 0 56 0 C56 32.67 56 65.34 56 99 C43.79 99 31.58 99 19 99 C18.67 95.7 18.34 92.4 18 89 C17.21689453 89.79664063 17.21689453 89.79664063 16.41796875 90.609375 C7.77788199 98.90143725 -0.308193 101.59020589 -12.21240234 101.4050293 C-19.11122161 101.11764751 -24.34238775 100.06703175 -29.8125 95.8125 C-39.03085193 83.96033324 -37.15594338 69.16536654 -37.1328125 54.79296875 C-37.13348811 53.29079676 -37.13446027 51.78862487 -37.13571167 50.28645325 C-37.13717065 47.17297298 -37.13508887 44.05952177 -37.13037109 40.94604492 C-37.12460977 36.94902648 -37.12800397 32.95207425 -37.13394356 28.9550581 C-37.13754326 25.86940503 -37.13641445 22.78376792 -37.13381577 19.6981144 C-37.13314818 18.2224559 -37.13396907 16.74679596 -37.13629532 15.27113914 C-37.13881898 13.22527467 -37.13429435 11.17940509 -37.12939453 9.13354492 C-37.12859894 7.96997971 -37.12780334 6.80641449 -37.12698364 5.60758972 C-37 3 -37 3 -36 2 C-34.27939911 1.77115068 -32.55042654 1.6046466 -30.8203125 1.46484375 C-29.74523437 1.37783203 -28.67015625 1.29082031 -27.5625 1.20117188 C-26.428125 1.11416016 -25.29375 1.02714844 -24.125 0.9375 C-23.02929688 0.84662109 -21.93359375 0.75574219 -20.8046875 0.66210938 C-13.84953635 0.1141028 -6.97461069 -0.04530745 0 0 Z " fill="#42355F" transform="translate(400,63)"/>
<path d="M0 0 C17.49 0 34.98 0 53 0 C53 8.91 53 17.82 53 27 C51.02 27 49.04 27 47 27 C47 53.73 47 80.46 47 108 C48.98 108 50.96 108 53 108 C53 116.91 53 125.82 53 135 C35.51 135 18.02 135 0 135 C0 126.09 0 117.18 0 108 C2.31 108 4.62 108 7 108 C7 81.27 7 54.54 7 27 C4.69 27 2.38 27 0 27 C0 18.09 0 9.18 0 0 Z " fill="#42355F" transform="translate(645,27)"/>
<path d="M0 0 C0.97324219 0.00612305 1.94648437 0.01224609 2.94921875 0.01855469 C9.97338457 0.17156098 15.94892587 1.00866537 22.1875 4.4375 C23.26 5.015 24.3325 5.5925 25.4375 6.1875 C35.68868129 14.57483015 40.50232473 25.41569107 42.1875 38.4375 C42.1875 44.0475 42.1875 49.6575 42.1875 55.4375 C26.0175 55.4375 9.8475 55.4375 -6.8125 55.4375 C-5.6041534 73.9299859 -5.6041534 73.9299859 4.1875 87.4375 C4.5175 87.7675 4.8475 88.0975 5.1875 88.4375 C9.95897805 88.85380345 14.56706984 88.9891358 19.125 87.4375 C26.26060847 80.51812209 25.94583929 71.71727137 26.1875 62.4375 C30.47579893 62.98347625 34.5018068 63.70091173 38.625 65 C39.48996094 65.26941406 40.35492187 65.53882813 41.24609375 65.81640625 C41.88675781 66.02136719 42.52742187 66.22632813 43.1875 66.4375 C41.98635754 77.69030828 40.38668357 86.23831643 32.1875 94.4375 C19.1527064 103.45198369 2.08929648 103.1266987 -13.13964844 101.1328125 C-22.65082655 99.26207401 -31.44362093 94.08774993 -37.46875 86.47265625 C-46.35146765 73.0194705 -48.01410911 55.71886076 -45.08984375 40.07421875 C-42.28566167 27.23543418 -37.26849444 15.59464698 -26.35546875 7.6484375 C-17.61964134 2.20028708 -10.23518013 -0.10895968 0 0 Z M-1.953125 14.1015625 C-8.08314972 21.80272801 -7.09014095 33.18280165 -6.8125 42.4375 C-1.2025 42.4375 4.4075 42.4375 10.1875 42.4375 C10.50103457 32.92695132 10.706634 22.5934491 5.83203125 14.06640625 C3.11444261 11.37463793 0.90837882 11.8771088 -1.953125 14.1015625 Z " fill="#42355F" transform="translate(595.8125,62.5625)"/>
<path d="M0 0 C4.51977165 5.46940452 6.63429761 12.52010604 6.53125 19.52734375 C6.52222656 20.3265625 6.51320313 21.12578125 6.50390625 21.94921875 C6.49230469 22.5525 6.48070312 23.15578125 6.46875 23.77734375 C4.24550074 24.95665865 2.01628361 26.12075293 -0.21875 27.27734375 C-0.84458984 27.61121094 -1.47042969 27.94507813 -2.11523438 28.2890625 C-5.73606317 30.14686995 -8.44529255 31.21484589 -12.53125 30.77734375 C-12.58732422 28.93269531 -12.58732422 28.93269531 -12.64453125 27.05078125 C-12.71022028 25.41793974 -12.77666659 23.78512857 -12.84375 22.15234375 C-12.86630859 21.34410156 -12.88886719 20.53585938 -12.91210938 19.703125 C-13.17375194 13.85184581 -14.17040707 9.40050256 -18.21875 4.90234375 C-21.67591322 3.22048056 -24.82231674 3.05417336 -28.53125 3.77734375 C-34.26439867 6.97467666 -35.73858501 10.95718563 -37.76953125 17.05859375 C-39.24143201 22.31214723 -39.70226055 27.23631331 -39.734375 32.68359375 C-39.74292511 33.82532043 -39.74292511 33.82532043 -39.75164795 34.9901123 C-39.76107042 36.60049057 -39.76762096 38.21088787 -39.77148438 39.82128906 C-39.78110906 42.24189703 -39.81212362 44.66162513 -39.84375 47.08203125 C-40.22170084 63.199034 -40.22170084 63.199034 -33.96875 77.52734375 C-30.01493766 81.17701668 -27.2864226 81.06344134 -22.0703125 80.98828125 C-18.5620865 80.69682863 -16.39435463 79.82241849 -13.53125 77.77734375 C-7.81603499 70.95083693 -7.21421227 63.30086436 -7.40625 54.77734375 C-7.41527344 54.00261719 -7.42429687 53.22789063 -7.43359375 52.4296875 C-7.45685612 50.54543532 -7.4927136 48.66134543 -7.53125 46.77734375 C-1.33606527 47.19322421 3.73564311 48.37986269 9.46875 50.77734375 C9.93140249 62.66922634 9.28349843 73.2601698 1.46875 82.77734375 C-6.77242878 91.23385025 -17.41488012 92.93675072 -28.71313477 93.25 C-43.97538177 93.37577232 -56.44901531 91.75214763 -68.23828125 81.2578125 C-77.2939088 71.83537472 -79.47222271 58.08187023 -79.84375 45.52734375 C-79.52403446 29.82366884 -75.82371245 15.3729531 -64.71875 3.7421875 C-48.4638306 -10.85821332 -17.06094593 -15.81356545 0 0 Z " fill="#42355F" transform="translate(282.53125,71.22265625)"/>
<path d="M0 0 C0 9.9 0 19.8 0 30 C4.95 30 9.9 30 15 30 C16 31 16 31 16.1328125 33.6875 C16.13023437 34.780625 16.12765625 35.87375 16.125 37 C16.12886719 38.6396875 16.12886719 38.6396875 16.1328125 40.3125 C16 43 16 43 15 44 C12.46950598 44.07313567 9.96695163 44.09247527 7.4375 44.0625 C6.72658203 44.05798828 6.01566406 44.05347656 5.28320312 44.04882812 C3.52209987 44.03700864 1.76103964 44.01907263 0 44 C0.10757316 52.40594681 0.22022106 60.81180377 0.33933926 69.21759415 C0.39449193 73.1207832 0.44789956 77.02397985 0.49731445 80.92724609 C0.5450711 84.69444955 0.59741776 88.46156387 0.65294075 92.22866058 C0.67331317 93.66553272 0.69203457 95.10242926 0.70907402 96.53934479 C0.7332312 98.55265433 0.76381483 100.56588365 0.79467773 102.57910156 C0.81799416 104.29785492 0.81799416 104.29785492 0.84178162 106.05133057 C0.97637021 108.55961862 1.13343442 110.64846429 2 113 C2.99 113.495 2.99 113.495 4 114 C4.495 112.02 4.495 112.02 5 110 C6.41655793 109.9727585 7.83327045 109.95349533 9.25 109.9375 C10.03890625 109.92589844 10.8278125 109.91429687 11.640625 109.90234375 C13.90691002 109.99614694 15.8288895 110.36758937 18 111 C17.46175151 115.57511214 15.89814327 118.43305444 13 122 C3.36434155 129.38008337 -7.30406665 128.87159537 -19 128 C-25.57799371 126.71837212 -29.76985906 123.98091222 -33.94140625 118.78125 C-39.06419085 110.16136152 -37.1406859 96.13334155 -37.09765625 86.48046875 C-37.0962413 85.25588455 -37.09482635 84.03130035 -37.09336853 82.76960754 C-37.08782995 78.90887877 -37.0752894 75.04821085 -37.0625 71.1875 C-37.05747705 68.54882897 -37.05291554 65.91015702 -37.04882812 63.27148438 C-37.03788074 56.84763328 -37.02065948 50.42382691 -37 44 C-40.63 44 -44.26 44 -48 44 C-48 39.38 -48 34.76 -48 30 C-44.37 30 -40.74 30 -37 30 C-37 24.72 -37 19.44 -37 14 C-35.62328125 13.49210937 -34.2465625 12.98421875 -32.828125 12.4609375 C-23.7227069 9.066566 -14.79964813 5.73666328 -6.27734375 1.03125 C-4 0 -4 0 0 0 Z " fill="#42355F" transform="translate(748,35)"/>
<path d="M0 0 C0.66 2.64 1.32 5.28 2 8 C2.45890625 7.59007813 2.9178125 7.18015625 3.390625 6.7578125 C4.00421875 6.21898438 4.6178125 5.68015625 5.25 5.125 C5.85328125 4.59132813 6.4565625 4.05765625 7.078125 3.5078125 C12.89090438 -1.0526201 18.8497734 -0.56988107 26 0 C30.80132174 1.60044058 33.18211757 3.82535936 36 8 C37.23250746 11.69752237 37.22301331 15.14765068 37.25 19 C37.270625 19.70511719 37.29125 20.41023438 37.3125 21.13671875 C37.36085857 27.87064941 35.9094215 31.99878782 34 39 C25.42 39 16.84 39 8 39 C9 30 9 30 10 27 C10.03954234 24.66700175 10.04401732 22.33291811 10 20 C9.01 20 8.02 20 7 20 C1.226316 31.09892652 0.70385551 42.54059268 0.5859375 54.859375 C0.56657135 56.12976624 0.5472052 57.40015747 0.5272522 58.70904541 C0.47803578 62.04287376 0.43659064 65.37660419 0.39910889 68.71057129 C0.35868578 72.13005885 0.30787008 75.54939215 0.2578125 78.96875 C0.16080978 85.64577041 0.08080826 92.32268591 0 99 C-11.88 99 -23.76 99 -36 99 C-36 66.99 -36 34.98 -36 2 C-25.605 1.505 -25.605 1.505 -15 1 C-9.74120549 0.34265069 -5.20615812 -0.10846163 0 0 Z " fill="#42355F" transform="translate(509,63)"/>
<path d="M0 0 C0 32.67 0 65.34 0 99 C-12.21 99 -24.42 99 -37 99 C-37.02254926 86.50042579 -37.04091406 74.00086497 -37.05181217 61.50127506 C-37.05704144 55.69786387 -37.06413987 49.89446725 -37.07543945 44.09106445 C-37.08626678 38.49549147 -37.0922765 32.89993255 -37.09487724 27.3043499 C-37.09673177 25.16441056 -37.10035291 23.02447204 -37.10573006 20.88453865 C-37.11293844 17.89835034 -37.11399103 14.91222093 -37.11352539 11.92602539 C-37.11712067 11.03194977 -37.12071594 10.13787415 -37.12442017 9.21670532 C-37.11405216 3.11405216 -37.11405216 3.11405216 -36 2 C-34.10965162 1.77067843 -32.21158352 1.60444013 -30.3125 1.46484375 C-29.13816406 1.37783203 -27.96382812 1.29082031 -26.75390625 1.20117188 C-25.51511719 1.11416016 -24.27632812 1.02714844 -23 0.9375 C-21.18822266 0.80118164 -21.18822266 0.80118164 -19.33984375 0.66210938 C-12.84250965 0.19195408 -6.53968923 0 0 0 Z " fill="#42355F" transform="translate(191,63)"/>
<path d="M0 0 C0.7425 -0.01611328 1.485 -0.03222656 2.25 -0.04882812 C7.11197304 -0.05312315 10.39742909 0.67347088 14.625 3.3125 C18.08738346 7.12112181 18.07513967 11.01390931 17.9140625 15.94140625 C17.40673717 20.10284509 15.72625281 22.31782004 12.6875 25.0625 C6.83333972 28.61047593 -1.33005178 28.12920656 -7.83203125 26.81640625 C-11.00141309 25.77562594 -13.04053448 24.75613135 -15.0625 22.07421875 C-17.33071586 17.30151455 -17.02620894 12.47923463 -16.375 7.3125 C-12.50709595 0.40552848 -7.4144087 -0.03184883 0 0 Z " fill="#42355F" transform="translate(172.375,28.6875)"/>
</svg>
