<?xml version="1.0" standalone="no"?>
<!DOCTYPE svg PUBLIC "-//W3C//DTD SVG 20010904//EN"
 "http://www.w3.org/TR/2001/REC-SVG-20010904/DTD/svg10.dtd">
<svg version="1.0" xmlns="http://www.w3.org/2000/svg"
 width="1637.000000pt" height="378.000000pt" viewBox="0 0 1637.000000 378.000000"
 preserveAspectRatio="xMidYMid meet">

<g transform="translate(0.000000,378.000000) scale(0.100000,-0.100000)"
fill="#000000" stroke="none">
<path d="M13794 3311 c-51 -31 -100 -97 -118 -159 -9 -31 -23 -78 -31 -103
-21 -65 -19 -86 10 -105 30 -20 139 -30 219 -20 74 10 109 44 136 134 29 97
48 205 39 228 -16 44 -195 62 -255 25z"/>
<path d="M980 3189 c-30 -6 -86 -8 -125 -6 -87 6 -208 -14 -243 -40 -44 -33
-51 -115 -51 -658 -1 -487 10 -878 29 -1105 29 -333 98 -647 154 -699 26 -24
146 -51 231 -51 100 0 227 35 239 66 2 6 -8 62 -24 125 -59 245 -94 481 -125
859 -8 102 -17 218 -21 258 l-6 72 49 0 c124 0 356 44 527 101 240 80 487 234
589 368 105 138 104 308 -4 422 -95 100 -297 195 -518 244 -195 43 -578 67
-701 44z m445 -134 c217 -59 347 -141 401 -251 23 -47 26 -63 22 -118 -7 -86
-45 -152 -133 -233 -98 -90 -249 -172 -410 -225 -61 -20 -267 -69 -271 -65 -6
6 -24 553 -24 726 l0 193 178 -5 c119 -3 197 -11 237 -22z"/>
<path d="M6525 2712 c-66 -4 -84 -11 -125 -48 -43 -39 -60 -82 -60 -155 l0
-47 -102 -6 c-184 -12 -371 -41 -405 -62 -31 -19 -29 -31 8 -53 47 -29 152
-34 324 -18 83 8 151 14 152 13 1 -1 -9 -61 -22 -134 -56 -301 -80 -602 -80
-1012 0 -300 1 -319 23 -395 49 -169 129 -260 257 -294 85 -23 258 -5 301 29
22 19 17 53 -17 100 -73 101 -106 221 -119 434 -9 153 0 487 19 696 15 164 63
615 65 617 1 2 67 7 147 13 231 16 349 43 349 80 0 42 -34 60 -112 60 -71 0
-247 -13 -337 -26 l-43 -6 7 51 c10 72 0 102 -42 131 -37 25 -109 38 -188 32z"/>
<path d="M15150 2710 c-107 -10 -160 -65 -169 -179 l-6 -66 -80 -7 c-342 -31
-445 -52 -445 -92 0 -45 153 -63 360 -43 80 8 146 14 146 13 1 0 -9 -55 -22
-121 -55 -285 -89 -738 -81 -1110 5 -274 13 -321 70 -428 39 -74 97 -133 155
-160 90 -40 303 -31 360 15 19 16 14 51 -14 89 -113 150 -147 378 -125 833 10
209 74 912 84 922 2 2 68 8 148 14 228 16 349 45 349 83 0 32 -28 50 -84 55
-53 4 -301 -12 -373 -25 l-33 -5 0 75 c0 72 -1 76 -31 101 -42 36 -101 46
-209 36z"/>
<path d="M13704 2680 c-81 -41 -99 -110 -109 -415 -4 -110 -18 -337 -31 -505
-14 -168 -31 -386 -39 -485 -23 -280 -34 -558 -24 -578 26 -49 205 -77 347
-53 52 8 104 22 118 31 l24 15 0 273 c0 170 8 398 22 607 14 228 22 442 22
670 1 377 -1 388 -72 432 -54 33 -200 38 -258 8z"/>
<path d="M3064 2577 c-84 -33 -138 -110 -132 -189 4 -57 32 -71 148 -72 69 -1
92 3 120 20 53 30 145 193 123 215 -32 32 -198 49 -259 26z"/>
<path d="M12165 2154 c-167 -23 -262 -69 -384 -187 -178 -172 -284 -444 -284
-727 1 -370 221 -588 623 -615 107 -7 275 7 365 30 200 52 390 174 565 365 55
60 100 116 100 123 0 26 -38 48 -93 54 -75 8 -133 -21 -270 -133 -304 -248
-402 -304 -541 -304 -79 0 -136 28 -187 93 -66 83 -121 213 -135 317 l-6 47
98 6 c166 10 292 68 428 196 177 167 261 410 192 556 -32 70 -103 130 -182
155 -61 18 -227 33 -289 24z m118 -119 c11 -7 25 -11 33 -8 21 8 29 -40 28
-157 -2 -123 -30 -234 -95 -366 -88 -180 -169 -228 -281 -166 l-50 27 7 60
c33 316 129 563 239 611 40 17 96 17 119 -1z"/>
<path d="M9013 2067 c-18 -7 -39 -19 -47 -27 -7 -8 -56 -107 -108 -220 -151
-330 -256 -492 -415 -639 -95 -89 -167 -131 -259 -155 -174 -45 -266 11 -310
187 -43 174 -3 480 76 580 18 23 19 27 4 41 -8 9 -27 19 -41 22 -40 11 -164
-3 -218 -23 -62 -23 -85 -61 -122 -200 -46 -170 -31 -408 32 -533 55 -108 166
-195 280 -218 227 -47 449 -2 661 134 63 41 151 110 213 168 31 29 42 35 38
21 -15 -51 -38 -246 -44 -368 l-6 -135 25 -16 c44 -29 89 -37 209 -37 82 0
127 4 155 16 66 26 68 36 66 250 -4 268 23 603 79 969 l21 139 -22 17 c-49 37
-199 52 -267 27z"/>
<path d="M4480 2014 c-133 -15 -178 -29 -300 -87 -116 -57 -231 -169 -283
-277 -70 -143 -90 -283 -63 -421 60 -292 305 -465 696 -489 272 -17 537 37
778 157 82 41 125 70 157 104 79 84 55 114 -86 107 l-88 -4 -213 -107 c-250
-125 -302 -141 -442 -135 -130 6 -190 33 -275 124 -72 76 -114 160 -136 273
-25 121 -9 223 56 368 61 136 140 226 237 271 47 21 65 24 132 20 64 -4 87
-10 136 -38 71 -40 122 -78 191 -144 51 -48 52 -49 100 -42 28 3 54 13 61 24
19 24 10 93 -17 130 -42 59 -166 119 -304 146 -74 15 -275 27 -337 20z"/>
<path d="M2972 1991 c-38 -10 -58 -33 -66 -77 -4 -16 -29 -103 -56 -191 -63
-202 -75 -279 -65 -406 6 -91 9 -101 46 -157 55 -81 102 -104 230 -108 71 -3
105 0 133 12 44 18 44 17 5 197 -21 98 -22 115 -12 205 6 55 27 154 46 221 20
67 39 155 43 196 6 74 6 75 -21 93 -21 14 -52 18 -139 20 -61 2 -126 -1 -144
-5z"/>
<path d="M10955 1940 c-116 -12 -274 -73 -402 -153 -76 -48 -223 -177 -285
-251 -36 -42 -66 -69 -70 -63 -3 6 -9 62 -13 126 -9 162 -24 272 -40 298 -28
43 -208 58 -279 22 -17 -7 -39 -30 -50 -49 -19 -32 -21 -50 -19 -190 6 -435
83 -837 172 -897 22 -15 48 -18 168 -18 186 0 182 -3 194 164 25 369 192 673
466 848 99 63 162 86 226 84 45 -1 67 3 94 20 l36 22 -23 19 c-12 10 -35 18
-50 18 -16 0 -34 2 -42 3 -7 2 -44 1 -83 -3z"/>
</g>
</svg>
